<mxfile host="app.diagrams.net" agent="Mozilla/5.0 (X11; Ubuntu; Linux x86_64; rv:139.0) Gecko/20100101 Firefox/139.0" version="27.1.3">
  <diagram name="Page-1" id="Juiqj6YkxCS37qnOwY-p">
    <mxGraphModel dx="2276" dy="771" grid="1" gridSize="5" guides="1" tooltips="1" connect="1" arrows="1" fold="1" page="1" pageScale="1" pageWidth="850" pageHeight="1100" math="0" shadow="0">
      <root>
        <mxCell id="0" />
        <mxCell id="1" parent="0" />
        <mxCell id="n15t3PWzXRXZYpA_dQfd-8" value="&lt;div&gt;&lt;b&gt;Daughter&lt;/b&gt;&lt;/div&gt;&lt;div&gt;&lt;b&gt;Wavelet&lt;/b&gt;&lt;/div&gt;&lt;div&gt;&lt;b&gt;BROM&lt;/b&gt;&lt;/div&gt;" style="rounded=0;whiteSpace=wrap;html=1;fontFamily=NewsGotT;verticalAlign=middle;" parent="1" vertex="1">
          <mxGeometry x="365" y="295" width="110" height="70" as="geometry" />
        </mxCell>
        <mxCell id="6dm7ZZ2Ce49l9A71G7zG-26" value="rsta" style="text;html=1;align=left;verticalAlign=middle;resizable=0;points=[];autosize=1;strokeColor=none;fillColor=none;spacing=0;fontFamily=NewsGotT;spacingLeft=3;spacingRight=-10;spacingBottom=-2;spacingTop=-2;" parent="1" vertex="1">
          <mxGeometry x="370" y="128" width="25" height="20" as="geometry" />
        </mxCell>
        <mxCell id="6dm7ZZ2Ce49l9A71G7zG-27" value="" style="triangle;whiteSpace=wrap;html=1;fontFamily=NewsGotT;movable=1;resizable=1;rotatable=1;deletable=1;editable=1;locked=0;connectable=1;container=0;points=[];" parent="1" vertex="1">
          <mxGeometry x="370" y="115" width="7.5" height="10" as="geometry" />
        </mxCell>
        <mxCell id="6dm7ZZ2Ce49l9A71G7zG-28" value="ena" style="text;html=1;align=left;verticalAlign=middle;resizable=0;points=[];autosize=1;strokeColor=none;fillColor=none;spacing=0;fontFamily=NewsGotT;spacingLeft=3;spacingRight=-10;spacingBottom=-2;spacingTop=-2;" parent="1" vertex="1">
          <mxGeometry x="370" y="152" width="20" height="20" as="geometry" />
        </mxCell>
        <mxCell id="6dm7ZZ2Ce49l9A71G7zG-29" value="wea" style="text;html=1;align=left;verticalAlign=middle;resizable=0;points=[];autosize=1;strokeColor=none;fillColor=none;spacing=0;fontFamily=NewsGotT;spacingLeft=3;spacingRight=-10;spacingBottom=-2;spacingTop=-2;" parent="1" vertex="1">
          <mxGeometry x="370" y="177" width="25" height="20" as="geometry" />
        </mxCell>
        <mxCell id="6dm7ZZ2Ce49l9A71G7zG-30" value="addra" style="text;html=1;align=left;verticalAlign=middle;resizable=0;points=[];autosize=1;strokeColor=none;fillColor=none;fontFamily=NewsGotT;fontSize=12;fontColor=default;spacing=0;spacingLeft=3;spacingRight=-10;spacingBottom=-2;spacingTop=-2;" parent="1" vertex="1">
          <mxGeometry x="370" y="201" width="30" height="20" as="geometry" />
        </mxCell>
        <mxCell id="6dm7ZZ2Ce49l9A71G7zG-31" value="dina" style="text;html=1;align=left;verticalAlign=middle;resizable=0;points=[];autosize=1;strokeColor=none;fillColor=none;fontFamily=NewsGotT;fontSize=12;fontColor=default;spacing=0;spacingLeft=3;spacingRight=-10;spacingBottom=-2;spacingTop=-2;" parent="1" vertex="1">
          <mxGeometry x="370" y="225" width="25" height="20" as="geometry" />
        </mxCell>
        <mxCell id="6dm7ZZ2Ce49l9A71G7zG-32" value="" style="triangle;whiteSpace=wrap;html=1;fontFamily=NewsGotT;movable=1;resizable=1;rotatable=1;deletable=1;editable=1;locked=0;connectable=1;container=0;points=[[0,0.5,0,0,0]];" parent="1" vertex="1">
          <mxGeometry x="370" y="115" width="7.5" height="10" as="geometry" />
        </mxCell>
        <mxCell id="6dm7ZZ2Ce49l9A71G7zG-46" value="x_re_i[31:0]" style="edgeStyle=orthogonalEdgeStyle;rounded=0;orthogonalLoop=1;jettySize=auto;html=1;entryX=0;entryY=0.21;entryDx=0;entryDy=3;entryPerimeter=0;endArrow=none;endFill=0;align=right;fontSize=12;fontFamily=NewsGotT;" parent="1" target="6dm7ZZ2Ce49l9A71G7zG-1" edge="1">
          <mxGeometry x="-1" y="5" relative="1" as="geometry">
            <mxPoint x="100" y="209" as="sourcePoint" />
            <Array as="points">
              <mxPoint x="138" y="209" />
            </Array>
            <mxPoint x="-5" y="5" as="offset" />
          </mxGeometry>
        </mxCell>
        <mxCell id="6dm7ZZ2Ce49l9A71G7zG-155" value="src_sel_i" style="edgeStyle=orthogonalEdgeStyle;rounded=0;orthogonalLoop=1;jettySize=auto;html=1;exitX=0.3333333333333333;exitY=1;exitDx=10;exitDy=0;exitPerimeter=0;entryX=0.3333333333333333;entryY=1;entryDx=10;entryDy=0;entryPerimeter=0;endArrow=none;endFill=0;align=right;fontFamily=NewsGotT;fontSize=12;" parent="1" target="6dm7ZZ2Ce49l9A71G7zG-1" edge="1">
          <mxGeometry x="-1" y="-5" relative="1" as="geometry">
            <mxPoint x="100" y="300" as="sourcePoint" />
            <Array as="points">
              <mxPoint x="205" y="300" />
            </Array>
            <mxPoint x="-5" y="-5" as="offset" />
          </mxGeometry>
        </mxCell>
        <mxCell id="6dm7ZZ2Ce49l9A71G7zG-1" value="" style="shadow=0;dashed=0;align=center;html=1;strokeWidth=1;shape=mxgraph.electrical.abstract.mux2;whiteSpace=wrap;fontFamily=NewsGotT;fontSize=14;" parent="1" vertex="1">
          <mxGeometry x="175" y="185" width="60" height="100" as="geometry" />
        </mxCell>
        <mxCell id="6dm7ZZ2Ce49l9A71G7zG-2" value="&lt;b&gt;N-point&lt;br&gt;BRAM&lt;/b&gt;" style="rounded=0;whiteSpace=wrap;html=1;fontFamily=NewsGotT;verticalAlign=middle;" parent="1" vertex="1">
          <mxGeometry x="365" y="90" width="110" height="165" as="geometry" />
        </mxCell>
        <mxCell id="6dm7ZZ2Ce49l9A71G7zG-3" value="rsta" style="text;html=1;align=left;verticalAlign=middle;resizable=0;points=[];autosize=1;strokeColor=none;fillColor=none;spacing=0;fontFamily=NewsGotT;spacingLeft=3;spacingRight=-10;spacingBottom=-2;spacingTop=-2;" parent="1" vertex="1">
          <mxGeometry x="365" y="123" width="25" height="20" as="geometry" />
        </mxCell>
        <mxCell id="6dm7ZZ2Ce49l9A71G7zG-4" value="" style="triangle;whiteSpace=wrap;html=1;fontFamily=NewsGotT;movable=1;resizable=1;rotatable=1;deletable=1;editable=1;locked=0;connectable=1;container=0;points=[];" parent="1" vertex="1">
          <mxGeometry x="365" y="110" width="7.5" height="10" as="geometry" />
        </mxCell>
        <mxCell id="6dm7ZZ2Ce49l9A71G7zG-5" value="ena" style="text;html=1;align=left;verticalAlign=middle;resizable=0;points=[];autosize=1;strokeColor=none;fillColor=none;spacing=0;fontFamily=NewsGotT;spacingLeft=3;spacingRight=-10;spacingBottom=-2;spacingTop=-2;" parent="1" vertex="1">
          <mxGeometry x="365" y="147" width="20" height="20" as="geometry" />
        </mxCell>
        <mxCell id="6dm7ZZ2Ce49l9A71G7zG-6" value="wea" style="text;html=1;align=left;verticalAlign=middle;resizable=0;points=[];autosize=1;strokeColor=none;fillColor=none;spacing=0;fontFamily=NewsGotT;spacingLeft=3;spacingRight=-10;spacingBottom=-2;spacingTop=-2;" parent="1" vertex="1">
          <mxGeometry x="365" y="172" width="25" height="20" as="geometry" />
        </mxCell>
        <mxCell id="6dm7ZZ2Ce49l9A71G7zG-7" value="addra" style="text;html=1;align=left;verticalAlign=middle;resizable=0;points=[];autosize=1;strokeColor=none;fillColor=none;fontFamily=NewsGotT;fontSize=12;fontColor=default;spacing=0;spacingLeft=3;spacingRight=-10;spacingBottom=-2;spacingTop=-2;" parent="1" vertex="1">
          <mxGeometry x="365" y="196" width="30" height="20" as="geometry" />
        </mxCell>
        <mxCell id="6dm7ZZ2Ce49l9A71G7zG-8" value="dina" style="text;html=1;align=left;verticalAlign=middle;resizable=0;points=[];autosize=1;strokeColor=none;fillColor=none;fontFamily=NewsGotT;fontSize=12;fontColor=default;spacing=0;spacingLeft=3;spacingRight=-10;spacingBottom=-2;spacingTop=-2;" parent="1" vertex="1">
          <mxGeometry x="365" y="220" width="25" height="20" as="geometry" />
        </mxCell>
        <mxCell id="6dm7ZZ2Ce49l9A71G7zG-9" value="" style="triangle;whiteSpace=wrap;html=1;fontFamily=NewsGotT;movable=1;resizable=1;rotatable=1;deletable=1;editable=1;locked=0;connectable=1;container=0;points=[[0,0.5,0,0,0]];" parent="1" vertex="1">
          <mxGeometry x="365" y="110" width="7.5" height="10" as="geometry" />
        </mxCell>
        <mxCell id="6dm7ZZ2Ce49l9A71G7zG-11" value="douta" style="text;html=1;align=right;verticalAlign=middle;resizable=0;points=[];autosize=1;strokeColor=none;fillColor=none;fontFamily=NewsGotT;fontSize=12;fontColor=default;spacing=0;spacingRight=3;spacingLeft=-9;spacingBottom=-2;spacingTop=-2;" parent="1" vertex="1">
          <mxGeometry x="445" y="165" width="30" height="20" as="geometry" />
        </mxCell>
        <mxCell id="6dm7ZZ2Ce49l9A71G7zG-19" value="clk" style="endArrow=none;html=1;rounded=0;align=right;fontFamily=NewsGotT;fontSize=12;" parent="1" edge="1">
          <mxGeometry x="-1" y="-10" width="50" height="50" relative="1" as="geometry">
            <mxPoint x="100" y="40" as="sourcePoint" />
            <mxPoint x="635" y="40" as="targetPoint" />
            <mxPoint x="-10" y="-10" as="offset" />
          </mxGeometry>
        </mxCell>
        <mxCell id="6dm7ZZ2Ce49l9A71G7zG-20" value="rstn" style="endArrow=none;html=1;rounded=0;align=right;labelBackgroundColor=none;fontFamily=NewsGotT;fontSize=12;" parent="1" edge="1">
          <mxGeometry x="-1" y="-10" width="50" height="50" relative="1" as="geometry">
            <mxPoint x="100" y="50" as="sourcePoint" />
            <mxPoint x="340" y="50" as="targetPoint" />
            <mxPoint x="-10" y="-10" as="offset" />
          </mxGeometry>
        </mxCell>
        <mxCell id="6dm7ZZ2Ce49l9A71G7zG-21" value="" style="endArrow=none;html=1;rounded=0;entryX=0;entryY=0.5;entryDx=0;entryDy=0;entryPerimeter=0;edgeStyle=orthogonalEdgeStyle;startArrow=oval;startFill=1;startSize=3;fontFamily=NewsGotT;" parent="1" target="6dm7ZZ2Ce49l9A71G7zG-9" edge="1">
          <mxGeometry width="50" height="50" relative="1" as="geometry">
            <mxPoint x="350" y="40" as="sourcePoint" />
            <mxPoint x="345" y="120" as="targetPoint" />
            <Array as="points">
              <mxPoint x="350" y="40" />
              <mxPoint x="350" y="115" />
            </Array>
          </mxGeometry>
        </mxCell>
        <mxCell id="6dm7ZZ2Ce49l9A71G7zG-23" value="" style="endArrow=classic;html=1;rounded=0;edgeStyle=orthogonalEdgeStyle;startArrow=oval;startFill=1;startSize=3;entryX=0.002;entryY=0.612;entryDx=0;entryDy=0;entryPerimeter=0;endFill=1;fontFamily=NewsGotT;" parent="1" target="6dm7ZZ2Ce49l9A71G7zG-3" edge="1">
          <mxGeometry width="50" height="50" relative="1" as="geometry">
            <mxPoint x="340" y="50" as="sourcePoint" />
            <mxPoint x="365" y="134" as="targetPoint" />
            <Array as="points">
              <mxPoint x="340" y="50" />
              <mxPoint x="340" y="135" />
            </Array>
          </mxGeometry>
        </mxCell>
        <mxCell id="6dm7ZZ2Ce49l9A71G7zG-42" style="edgeStyle=orthogonalEdgeStyle;rounded=0;orthogonalLoop=1;jettySize=auto;html=1;exitX=1;exitY=0.5;exitDx=0;exitDy=-5;exitPerimeter=0;entryX=-0.005;entryY=0.489;entryDx=0;entryDy=0;entryPerimeter=0;fontFamily=NewsGotT;" parent="1" source="6dm7ZZ2Ce49l9A71G7zG-1" target="6dm7ZZ2Ce49l9A71G7zG-8" edge="1">
          <mxGeometry relative="1" as="geometry" />
        </mxCell>
        <mxCell id="6dm7ZZ2Ce49l9A71G7zG-44" value="" style="shadow=0;dashed=0;align=center;html=1;strokeWidth=1;shape=mxgraph.electrical.abstract.mux2;operation=demux;whiteSpace=wrap;fontFamily=NewsGotT;fontSize=14;" parent="1" vertex="1">
          <mxGeometry x="518" y="130" width="60" height="100" as="geometry" />
        </mxCell>
        <mxCell id="6dm7ZZ2Ce49l9A71G7zG-45" style="edgeStyle=orthogonalEdgeStyle;rounded=0;orthogonalLoop=1;jettySize=auto;html=1;entryX=0;entryY=0.45;entryDx=0;entryDy=0;entryPerimeter=0;endArrow=none;endFill=0;fontFamily=NewsGotT;" parent="1" source="6dm7ZZ2Ce49l9A71G7zG-11" target="6dm7ZZ2Ce49l9A71G7zG-44" edge="1">
          <mxGeometry relative="1" as="geometry" />
        </mxCell>
        <mxCell id="6dm7ZZ2Ce49l9A71G7zG-47" value="rsta" style="text;html=1;align=left;verticalAlign=middle;resizable=0;points=[];autosize=1;strokeColor=none;fillColor=none;spacing=0;fontFamily=NewsGotT;spacingLeft=3;spacingRight=-10;spacingBottom=-2;spacingTop=-2;" parent="1" vertex="1">
          <mxGeometry x="370" y="443" width="25" height="20" as="geometry" />
        </mxCell>
        <mxCell id="6dm7ZZ2Ce49l9A71G7zG-48" value="" style="triangle;whiteSpace=wrap;html=1;fontFamily=NewsGotT;movable=1;resizable=1;rotatable=1;deletable=1;editable=1;locked=0;connectable=1;container=0;points=[];" parent="1" vertex="1">
          <mxGeometry x="370" y="430" width="7.5" height="10" as="geometry" />
        </mxCell>
        <mxCell id="6dm7ZZ2Ce49l9A71G7zG-49" value="ena" style="text;html=1;align=left;verticalAlign=middle;resizable=0;points=[];autosize=1;strokeColor=none;fillColor=none;spacing=0;fontFamily=NewsGotT;spacingLeft=3;spacingRight=-10;spacingBottom=-2;spacingTop=-2;" parent="1" vertex="1">
          <mxGeometry x="370" y="467" width="20" height="20" as="geometry" />
        </mxCell>
        <mxCell id="6dm7ZZ2Ce49l9A71G7zG-50" value="wea" style="text;html=1;align=left;verticalAlign=middle;resizable=0;points=[];autosize=1;strokeColor=none;fillColor=none;spacing=0;fontFamily=NewsGotT;spacingLeft=3;spacingRight=-10;spacingBottom=-2;spacingTop=-2;" parent="1" vertex="1">
          <mxGeometry x="370" y="492" width="25" height="20" as="geometry" />
        </mxCell>
        <mxCell id="6dm7ZZ2Ce49l9A71G7zG-51" value="addra" style="text;html=1;align=left;verticalAlign=middle;resizable=0;points=[];autosize=1;strokeColor=none;fillColor=none;fontFamily=NewsGotT;fontSize=12;fontColor=default;spacing=0;spacingLeft=3;spacingRight=-10;spacingBottom=-2;spacingTop=-2;" parent="1" vertex="1">
          <mxGeometry x="370" y="516" width="30" height="20" as="geometry" />
        </mxCell>
        <mxCell id="6dm7ZZ2Ce49l9A71G7zG-52" value="dina" style="text;html=1;align=left;verticalAlign=middle;resizable=0;points=[];autosize=1;strokeColor=none;fillColor=none;fontFamily=NewsGotT;fontSize=12;fontColor=default;spacing=0;spacingLeft=3;spacingRight=-10;spacingBottom=-2;spacingTop=-2;" parent="1" vertex="1">
          <mxGeometry x="370" y="540" width="25" height="20" as="geometry" />
        </mxCell>
        <mxCell id="6dm7ZZ2Ce49l9A71G7zG-53" value="" style="triangle;whiteSpace=wrap;html=1;fontFamily=NewsGotT;movable=1;resizable=1;rotatable=1;deletable=1;editable=1;locked=0;connectable=1;container=0;points=[[0,0.5,0,0,0]];" parent="1" vertex="1">
          <mxGeometry x="370" y="430" width="7.5" height="10" as="geometry" />
        </mxCell>
        <mxCell id="6dm7ZZ2Ce49l9A71G7zG-60" value="&lt;b&gt;N-point&lt;br&gt;BRAM&lt;/b&gt;" style="rounded=0;whiteSpace=wrap;html=1;fontFamily=NewsGotT;verticalAlign=middle;" parent="1" vertex="1">
          <mxGeometry x="365" y="405" width="110" height="165" as="geometry" />
        </mxCell>
        <mxCell id="6dm7ZZ2Ce49l9A71G7zG-61" value="rsta" style="text;html=1;align=left;verticalAlign=middle;resizable=0;points=[];autosize=1;strokeColor=none;fillColor=none;spacing=0;fontFamily=NewsGotT;spacingLeft=3;spacingRight=-10;spacingBottom=-2;spacingTop=-2;" parent="1" vertex="1">
          <mxGeometry x="365" y="438" width="25" height="20" as="geometry" />
        </mxCell>
        <mxCell id="6dm7ZZ2Ce49l9A71G7zG-62" value="" style="triangle;whiteSpace=wrap;html=1;fontFamily=NewsGotT;movable=1;resizable=1;rotatable=1;deletable=1;editable=1;locked=0;connectable=1;container=0;points=[];" parent="1" vertex="1">
          <mxGeometry x="365" y="425" width="7.5" height="10" as="geometry" />
        </mxCell>
        <mxCell id="6dm7ZZ2Ce49l9A71G7zG-63" value="ena" style="text;html=1;align=left;verticalAlign=middle;resizable=0;points=[];autosize=1;strokeColor=none;fillColor=none;spacing=0;fontFamily=NewsGotT;spacingLeft=3;spacingRight=-10;spacingBottom=-2;spacingTop=-2;" parent="1" vertex="1">
          <mxGeometry x="365" y="462" width="20" height="20" as="geometry" />
        </mxCell>
        <mxCell id="6dm7ZZ2Ce49l9A71G7zG-64" value="wea" style="text;html=1;align=left;verticalAlign=middle;resizable=0;points=[];autosize=1;strokeColor=none;fillColor=none;spacing=0;fontFamily=NewsGotT;spacingLeft=3;spacingRight=-10;spacingBottom=-2;spacingTop=-2;" parent="1" vertex="1">
          <mxGeometry x="365" y="487" width="25" height="20" as="geometry" />
        </mxCell>
        <mxCell id="6dm7ZZ2Ce49l9A71G7zG-65" value="addra" style="text;html=1;align=left;verticalAlign=middle;resizable=0;points=[];autosize=1;strokeColor=none;fillColor=none;fontFamily=NewsGotT;fontSize=12;fontColor=default;spacing=0;spacingLeft=3;spacingRight=-10;spacingBottom=-2;spacingTop=-2;" parent="1" vertex="1">
          <mxGeometry x="365" y="511" width="30" height="20" as="geometry" />
        </mxCell>
        <mxCell id="6dm7ZZ2Ce49l9A71G7zG-66" value="dina" style="text;html=1;align=left;verticalAlign=middle;resizable=0;points=[];autosize=1;strokeColor=none;fillColor=none;fontFamily=NewsGotT;fontSize=12;fontColor=default;spacing=0;spacingLeft=3;spacingRight=-10;spacingBottom=-2;spacingTop=-2;" parent="1" vertex="1">
          <mxGeometry x="365" y="535" width="25" height="20" as="geometry" />
        </mxCell>
        <mxCell id="6dm7ZZ2Ce49l9A71G7zG-67" value="" style="triangle;whiteSpace=wrap;html=1;fontFamily=NewsGotT;movable=1;resizable=1;rotatable=1;deletable=1;editable=1;locked=0;connectable=1;container=0;points=[[0,0.5,0,0,0]];" parent="1" vertex="1">
          <mxGeometry x="365" y="425" width="7.5" height="10" as="geometry" />
        </mxCell>
        <mxCell id="6dm7ZZ2Ce49l9A71G7zG-68" value="douta" style="text;html=1;align=right;verticalAlign=middle;resizable=0;points=[];autosize=1;strokeColor=none;fillColor=none;fontFamily=NewsGotT;fontSize=12;fontColor=default;spacing=0;spacingRight=3;spacingLeft=-9;spacingBottom=-2;spacingTop=-2;" parent="1" vertex="1">
          <mxGeometry x="445" y="480" width="30" height="20" as="geometry" />
        </mxCell>
        <mxCell id="6dm7ZZ2Ce49l9A71G7zG-76" value="" style="endArrow=classic;html=1;rounded=0;edgeStyle=orthogonalEdgeStyle;startArrow=oval;startFill=1;startSize=3;entryX=-0.004;entryY=0.617;entryDx=0;entryDy=0;entryPerimeter=0;endFill=1;fontFamily=NewsGotT;" parent="1" target="6dm7ZZ2Ce49l9A71G7zG-61" edge="1">
          <mxGeometry width="50" height="50" relative="1" as="geometry">
            <mxPoint x="340" y="135" as="sourcePoint" />
            <mxPoint x="365" y="403.01" as="targetPoint" />
            <Array as="points">
              <mxPoint x="340" y="450" />
              <mxPoint x="365" y="450" />
            </Array>
          </mxGeometry>
        </mxCell>
        <mxCell id="6dm7ZZ2Ce49l9A71G7zG-78" value="" style="endArrow=none;html=1;rounded=0;entryX=0;entryY=0.5;entryDx=0;entryDy=0;entryPerimeter=0;edgeStyle=orthogonalEdgeStyle;startArrow=oval;startFill=1;startSize=3;fontFamily=NewsGotT;" parent="1" target="6dm7ZZ2Ce49l9A71G7zG-67" edge="1">
          <mxGeometry width="50" height="50" relative="1" as="geometry">
            <mxPoint x="350" y="320" as="sourcePoint" />
            <mxPoint x="365" y="387" as="targetPoint" />
            <Array as="points">
              <mxPoint x="350" y="430" />
            </Array>
          </mxGeometry>
        </mxCell>
        <mxCell id="6dm7ZZ2Ce49l9A71G7zG-81" value="x_im_i[31:0]" style="edgeStyle=orthogonalEdgeStyle;rounded=0;orthogonalLoop=1;jettySize=auto;html=1;entryX=0;entryY=0.21;entryDx=0;entryDy=3;entryPerimeter=0;endArrow=none;endFill=0;align=right;fontSize=12;fontFamily=NewsGotT;" parent="1" target="6dm7ZZ2Ce49l9A71G7zG-82" edge="1">
          <mxGeometry x="-1" y="5" relative="1" as="geometry">
            <mxPoint x="100" y="524" as="sourcePoint" />
            <Array as="points">
              <mxPoint x="138" y="524" />
            </Array>
            <mxPoint x="-5" y="5" as="offset" />
          </mxGeometry>
        </mxCell>
        <mxCell id="6dm7ZZ2Ce49l9A71G7zG-82" value="" style="shadow=0;dashed=0;align=center;html=1;strokeWidth=1;shape=mxgraph.electrical.abstract.mux2;whiteSpace=wrap;fontFamily=NewsGotT;fontSize=14;" parent="1" vertex="1">
          <mxGeometry x="175" y="500" width="60" height="100" as="geometry" />
        </mxCell>
        <mxCell id="6dm7ZZ2Ce49l9A71G7zG-83" style="edgeStyle=orthogonalEdgeStyle;rounded=0;orthogonalLoop=1;jettySize=auto;html=1;exitX=1;exitY=0.5;exitDx=0;exitDy=-5;exitPerimeter=0;entryX=-0.004;entryY=0.484;entryDx=0;entryDy=0;entryPerimeter=0;fontFamily=NewsGotT;" parent="1" source="6dm7ZZ2Ce49l9A71G7zG-82" target="6dm7ZZ2Ce49l9A71G7zG-66" edge="1">
          <mxGeometry relative="1" as="geometry" />
        </mxCell>
        <mxCell id="6dm7ZZ2Ce49l9A71G7zG-118" value="X_im_o[31:0]" style="edgeStyle=orthogonalEdgeStyle;rounded=0;orthogonalLoop=1;jettySize=auto;html=1;exitX=1;exitY=0.63;exitDx=0;exitDy=3;exitPerimeter=0;align=left;fontFamily=NewsGotT;fontSize=12;" parent="1" source="6dm7ZZ2Ce49l9A71G7zG-84" edge="1">
          <mxGeometry x="0.9998" y="-5" relative="1" as="geometry">
            <mxPoint x="810" y="513" as="targetPoint" />
            <Array as="points">
              <mxPoint x="810" y="513" />
            </Array>
            <mxPoint x="1" y="4" as="offset" />
          </mxGeometry>
        </mxCell>
        <mxCell id="6dm7ZZ2Ce49l9A71G7zG-84" value="" style="shadow=0;dashed=0;align=center;html=1;strokeWidth=1;shape=mxgraph.electrical.abstract.mux2;operation=demux;whiteSpace=wrap;fontFamily=NewsGotT;fontSize=14;" parent="1" vertex="1">
          <mxGeometry x="518" y="447" width="60" height="100" as="geometry" />
        </mxCell>
        <mxCell id="6dm7ZZ2Ce49l9A71G7zG-85" style="edgeStyle=orthogonalEdgeStyle;rounded=0;orthogonalLoop=1;jettySize=auto;html=1;entryX=0;entryY=0.45;entryDx=0;entryDy=0;entryPerimeter=0;endArrow=none;endFill=0;fontFamily=NewsGotT;" parent="1" target="6dm7ZZ2Ce49l9A71G7zG-84" edge="1">
          <mxGeometry relative="1" as="geometry">
            <mxPoint x="475" y="492" as="sourcePoint" />
            <Array as="points">
              <mxPoint x="475" y="492" />
            </Array>
          </mxGeometry>
        </mxCell>
        <mxCell id="6dm7ZZ2Ce49l9A71G7zG-124" style="edgeStyle=orthogonalEdgeStyle;rounded=0;orthogonalLoop=1;jettySize=auto;html=1;exitX=1;exitY=0.21;exitDx=0;exitDy=3;exitPerimeter=0;fontFamily=NewsGotT;" parent="1" source="6dm7ZZ2Ce49l9A71G7zG-44" target="n15t3PWzXRXZYpA_dQfd-19" edge="1">
          <mxGeometry relative="1" as="geometry">
            <Array as="points">
              <mxPoint x="615" y="154" />
              <mxPoint x="615" y="260" />
            </Array>
            <mxPoint x="625" y="340" as="targetPoint" />
          </mxGeometry>
        </mxCell>
        <mxCell id="6dm7ZZ2Ce49l9A71G7zG-125" value="" style="endArrow=none;html=1;rounded=0;edgeStyle=orthogonalEdgeStyle;startArrow=oval;startFill=1;startSize=3;fontFamily=NewsGotT;entryX=0;entryY=0.5;entryDx=0;entryDy=0;entryPerimeter=0;" parent="1" target="n15t3PWzXRXZYpA_dQfd-23" edge="1">
          <mxGeometry width="50" height="50" relative="1" as="geometry">
            <mxPoint x="635" y="40" as="sourcePoint" />
            <mxPoint x="695" y="250" as="targetPoint" />
            <Array as="points">
              <mxPoint x="635" y="40" />
              <mxPoint x="635" y="240" />
            </Array>
          </mxGeometry>
        </mxCell>
        <mxCell id="6dm7ZZ2Ce49l9A71G7zG-128" style="edgeStyle=orthogonalEdgeStyle;rounded=0;orthogonalLoop=1;jettySize=auto;html=1;exitX=1;exitY=0.21;exitDx=0;exitDy=3;exitPerimeter=0;fontFamily=NewsGotT;" parent="1" source="6dm7ZZ2Ce49l9A71G7zG-84" target="n15t3PWzXRXZYpA_dQfd-42" edge="1">
          <mxGeometry relative="1" as="geometry">
            <Array as="points">
              <mxPoint x="615" y="471" />
              <mxPoint x="615" y="435" />
            </Array>
            <mxPoint x="693" y="425" as="targetPoint" />
          </mxGeometry>
        </mxCell>
        <mxCell id="6dm7ZZ2Ce49l9A71G7zG-130" style="edgeStyle=orthogonalEdgeStyle;rounded=0;orthogonalLoop=1;jettySize=auto;html=1;entryX=0;entryY=0.63;entryDx=0;entryDy=3;entryPerimeter=0;fontFamily=NewsGotT;" parent="1" source="n15t3PWzXRXZYpA_dQfd-21" target="6dm7ZZ2Ce49l9A71G7zG-1" edge="1">
          <mxGeometry relative="1" as="geometry">
            <mxPoint x="120" y="251" as="targetPoint" />
            <Array as="points">
              <mxPoint x="770" y="259" />
              <mxPoint x="770" y="70" />
              <mxPoint x="140" y="70" />
              <mxPoint x="140" y="251" />
            </Array>
            <mxPoint x="883" y="280" as="sourcePoint" />
          </mxGeometry>
        </mxCell>
        <mxCell id="6dm7ZZ2Ce49l9A71G7zG-132" style="edgeStyle=orthogonalEdgeStyle;rounded=0;orthogonalLoop=1;jettySize=auto;html=1;entryX=0;entryY=0.63;entryDx=0;entryDy=3;entryPerimeter=0;fontFamily=NewsGotT;" parent="1" source="n15t3PWzXRXZYpA_dQfd-44" target="6dm7ZZ2Ce49l9A71G7zG-82" edge="1">
          <mxGeometry relative="1" as="geometry">
            <mxPoint x="120" y="601.0000000000002" as="targetPoint" />
            <Array as="points">
              <mxPoint x="770" y="416" />
              <mxPoint x="770" y="625" />
              <mxPoint x="140" y="625" />
              <mxPoint x="140" y="566" />
            </Array>
            <mxPoint x="724.6699999999998" y="397.6628571428572" as="sourcePoint" />
          </mxGeometry>
        </mxCell>
        <mxCell id="6dm7ZZ2Ce49l9A71G7zG-135" value="bram_en_i" style="endArrow=oval;html=1;rounded=0;align=right;endFill=1;startSize=6;endSize=3;fontFamily=NewsGotT;fontSize=12;" parent="1" edge="1">
          <mxGeometry x="-1" y="-5" width="50" height="50" relative="1" as="geometry">
            <mxPoint x="100" y="390" as="sourcePoint" />
            <mxPoint x="260" y="391" as="targetPoint" />
            <mxPoint x="-5" y="-5" as="offset" />
          </mxGeometry>
        </mxCell>
        <mxCell id="6dm7ZZ2Ce49l9A71G7zG-137" value="" style="endArrow=classic;html=1;rounded=0;edgeStyle=orthogonalEdgeStyle;startArrow=none;startFill=0;startSize=3;entryX=-0.004;entryY=0.602;entryDx=0;entryDy=0;entryPerimeter=0;endFill=1;fontFamily=NewsGotT;" parent="1" target="6dm7ZZ2Ce49l9A71G7zG-63" edge="1">
          <mxGeometry width="50" height="50" relative="1" as="geometry">
            <mxPoint x="260" y="345" as="sourcePoint" />
            <mxPoint x="305" y="636" as="targetPoint" />
            <Array as="points">
              <mxPoint x="260" y="475" />
              <mxPoint x="365" y="475" />
            </Array>
          </mxGeometry>
        </mxCell>
        <mxCell id="6dm7ZZ2Ce49l9A71G7zG-138" value="" style="endArrow=classic;html=1;rounded=0;edgeStyle=orthogonalEdgeStyle;startArrow=none;startFill=0;startSize=3;entryX=0;entryY=0.6;entryDx=0;entryDy=0;entryPerimeter=0;endFill=1;fontFamily=NewsGotT;" parent="1" target="6dm7ZZ2Ce49l9A71G7zG-5" edge="1">
          <mxGeometry width="50" height="50" relative="1" as="geometry">
            <mxPoint x="260" y="345" as="sourcePoint" />
            <mxPoint x="365" y="509" as="targetPoint" />
            <Array as="points">
              <mxPoint x="260" y="159" />
            </Array>
          </mxGeometry>
        </mxCell>
        <mxCell id="6dm7ZZ2Ce49l9A71G7zG-139" value="bram_we_i" style="endArrow=oval;html=1;rounded=0;align=right;endFill=1;startSize=6;endSize=3;fontFamily=NewsGotT;fontSize=12;" parent="1" edge="1">
          <mxGeometry x="-1" y="-5" width="50" height="50" relative="1" as="geometry">
            <mxPoint x="100" y="405" as="sourcePoint" />
            <mxPoint x="270" y="405" as="targetPoint" />
            <mxPoint x="-5" y="-5" as="offset" />
          </mxGeometry>
        </mxCell>
        <mxCell id="6dm7ZZ2Ce49l9A71G7zG-140" value="" style="endArrow=classic;html=1;rounded=0;edgeStyle=orthogonalEdgeStyle;startArrow=none;startFill=0;startSize=3;entryX=-0.003;entryY=0.596;entryDx=0;entryDy=0;entryPerimeter=0;endFill=1;fontFamily=NewsGotT;" parent="1" target="6dm7ZZ2Ce49l9A71G7zG-64" edge="1">
          <mxGeometry width="50" height="50" relative="1" as="geometry">
            <mxPoint x="270" y="360" as="sourcePoint" />
            <mxPoint x="374.5" y="521.5" as="targetPoint" />
            <Array as="points">
              <mxPoint x="270" y="499" />
            </Array>
          </mxGeometry>
        </mxCell>
        <mxCell id="6dm7ZZ2Ce49l9A71G7zG-141" value="" style="endArrow=classic;html=1;rounded=0;edgeStyle=orthogonalEdgeStyle;startArrow=none;startFill=0;startSize=3;entryX=-0.003;entryY=0.617;entryDx=0;entryDy=0;entryPerimeter=0;endFill=1;fontFamily=NewsGotT;" parent="1" target="6dm7ZZ2Ce49l9A71G7zG-6" edge="1">
          <mxGeometry width="50" height="50" relative="1" as="geometry">
            <mxPoint x="270" y="360" as="sourcePoint" />
            <mxPoint x="374.5" y="171.5" as="targetPoint" />
            <Array as="points">
              <mxPoint x="270" y="184" />
            </Array>
          </mxGeometry>
        </mxCell>
        <mxCell id="6dm7ZZ2Ce49l9A71G7zG-142" value="bram_addr_i" style="endArrow=oval;html=1;rounded=0;align=right;endFill=1;startSize=6;endSize=3;fontFamily=NewsGotT;fontSize=12;" parent="1" edge="1">
          <mxGeometry x="-1" y="-5" width="50" height="50" relative="1" as="geometry">
            <mxPoint x="100" y="420" as="sourcePoint" />
            <mxPoint x="280" y="420" as="targetPoint" />
            <mxPoint x="-5" y="-5" as="offset" />
          </mxGeometry>
        </mxCell>
        <mxCell id="6dm7ZZ2Ce49l9A71G7zG-143" value="" style="endArrow=classic;html=1;rounded=0;edgeStyle=orthogonalEdgeStyle;startArrow=none;startFill=0;startSize=3;entryX=0.008;entryY=0.697;entryDx=0;entryDy=0;entryPerimeter=0;endFill=1;fontFamily=NewsGotT;" parent="1" target="6dm7ZZ2Ce49l9A71G7zG-7" edge="1">
          <mxGeometry width="50" height="50" relative="1" as="geometry">
            <mxPoint x="280" y="375" as="sourcePoint" />
            <mxPoint x="375.5" y="196" as="targetPoint" />
            <Array as="points">
              <mxPoint x="280" y="210" />
            </Array>
          </mxGeometry>
        </mxCell>
        <mxCell id="6dm7ZZ2Ce49l9A71G7zG-144" value="" style="endArrow=classic;html=1;rounded=0;edgeStyle=orthogonalEdgeStyle;startArrow=none;startFill=0;startSize=3;entryX=0.002;entryY=0.682;entryDx=0;entryDy=0;entryPerimeter=0;endFill=1;fontFamily=NewsGotT;" parent="1" target="6dm7ZZ2Ce49l9A71G7zG-65" edge="1">
          <mxGeometry width="50" height="50" relative="1" as="geometry">
            <mxPoint x="280" y="375" as="sourcePoint" />
            <mxPoint x="375.5" y="546" as="targetPoint" />
            <Array as="points">
              <mxPoint x="280" y="525" />
            </Array>
          </mxGeometry>
        </mxCell>
        <mxCell id="6dm7ZZ2Ce49l9A71G7zG-156" value="" style="endArrow=none;html=1;rounded=0;entryX=0.3333333333333333;entryY=1;entryDx=10;entryDy=0;entryPerimeter=0;edgeStyle=orthogonalEdgeStyle;startArrow=oval;startFill=1;startSize=3;fontFamily=NewsGotT;" parent="1" target="6dm7ZZ2Ce49l9A71G7zG-82" edge="1">
          <mxGeometry width="50" height="50" relative="1" as="geometry">
            <mxPoint x="120" y="300" as="sourcePoint" />
            <mxPoint x="425" y="410" as="targetPoint" />
            <Array as="points">
              <mxPoint x="120" y="610" />
              <mxPoint x="205" y="610" />
            </Array>
          </mxGeometry>
        </mxCell>
        <mxCell id="6dm7ZZ2Ce49l9A71G7zG-158" value="" style="endArrow=none;html=1;rounded=0;entryX=0.3333333333333333;entryY=1;entryDx=10;entryDy=0;entryPerimeter=0;edgeStyle=orthogonalEdgeStyle;startArrow=oval;startFill=1;startSize=3;fontFamily=NewsGotT;" parent="1" target="6dm7ZZ2Ce49l9A71G7zG-84" edge="1">
          <mxGeometry width="50" height="50" relative="1" as="geometry">
            <mxPoint x="508" y="375" as="sourcePoint" />
            <mxPoint x="593" y="745" as="targetPoint" />
            <Array as="points">
              <mxPoint x="508" y="560" />
              <mxPoint x="548" y="560" />
            </Array>
          </mxGeometry>
        </mxCell>
        <mxCell id="SpzvFuYvfNZIos579TfY-1" value="X_re_o[31:0]" style="rounded=0;orthogonalLoop=1;jettySize=auto;html=1;exitX=1;exitY=0.21;exitDx=0;exitDy=3;exitPerimeter=0;fontFamily=NewsGotT;align=left;fontSize=12;" parent="1" edge="1">
          <mxGeometry x="1" relative="1" as="geometry">
            <mxPoint x="810" y="196" as="targetPoint" />
            <mxPoint x="578" y="196" as="sourcePoint" />
            <mxPoint as="offset" />
          </mxGeometry>
        </mxCell>
        <mxCell id="n15t3PWzXRXZYpA_dQfd-10" value="" style="triangle;whiteSpace=wrap;html=1;fontFamily=NewsGotT;movable=1;resizable=1;rotatable=1;deletable=1;editable=1;locked=0;connectable=1;container=0;points=[];" parent="1" vertex="1">
          <mxGeometry x="365" y="315" width="7.5" height="10" as="geometry" />
        </mxCell>
        <UserObject label="daughter_wave[15:0]" id="n15t3PWzXRXZYpA_dQfd-33">
          <mxCell style="edgeStyle=orthogonalEdgeStyle;rounded=0;orthogonalLoop=1;jettySize=auto;html=1;align=right;fontFamily=NewsGotT;fontSize=12;" parent="1" target="n15t3PWzXRXZYpA_dQfd-13" edge="1">
            <mxGeometry x="-1" y="-5" relative="1" as="geometry">
              <mxPoint x="100" y="344" as="sourcePoint" />
              <mxPoint x="-5" y="-5" as="offset" />
            </mxGeometry>
          </mxCell>
        </UserObject>
        <mxCell id="n15t3PWzXRXZYpA_dQfd-13" value="addra" style="text;html=1;align=left;verticalAlign=middle;resizable=0;points=[];autosize=1;strokeColor=none;fillColor=none;fontFamily=NewsGotT;fontSize=12;fontColor=default;spacing=0;spacingLeft=3;spacingRight=-10;spacingBottom=-2;spacingTop=-2;" parent="1" vertex="1">
          <mxGeometry x="365" y="334" width="30" height="20" as="geometry" />
        </mxCell>
        <mxCell id="n15t3PWzXRXZYpA_dQfd-15" value="" style="triangle;whiteSpace=wrap;html=1;fontFamily=NewsGotT;movable=1;resizable=1;rotatable=1;deletable=1;editable=1;locked=0;connectable=1;container=0;points=[[0,0.5,0,0,0]];" parent="1" vertex="1">
          <mxGeometry x="365" y="315" width="7.5" height="10" as="geometry" />
        </mxCell>
        <mxCell id="n15t3PWzXRXZYpA_dQfd-34" style="edgeStyle=orthogonalEdgeStyle;rounded=0;orthogonalLoop=1;jettySize=auto;html=1;endArrow=oval;startFill=0;endFill=1;startSize=6;endSize=3;" parent="1" source="n15t3PWzXRXZYpA_dQfd-16" edge="1">
          <mxGeometry relative="1" as="geometry">
            <mxPoint x="615" y="330" as="targetPoint" />
          </mxGeometry>
        </mxCell>
        <mxCell id="n15t3PWzXRXZYpA_dQfd-16" value="douta" style="text;html=1;align=right;verticalAlign=middle;resizable=0;points=[];autosize=1;strokeColor=none;fillColor=none;fontFamily=NewsGotT;fontSize=12;fontColor=default;spacing=0;spacingRight=3;spacingLeft=-9;spacingBottom=-2;spacingTop=-2;" parent="1" vertex="1">
          <mxGeometry x="445" y="320" width="30" height="20" as="geometry" />
        </mxCell>
        <mxCell id="n15t3PWzXRXZYpA_dQfd-32" value="" style="endArrow=none;html=1;rounded=0;entryX=0;entryY=0.5;entryDx=0;entryDy=0;entryPerimeter=0;edgeStyle=orthogonalEdgeStyle;startArrow=oval;startFill=1;startSize=3;fontFamily=NewsGotT;" parent="1" target="n15t3PWzXRXZYpA_dQfd-15" edge="1">
          <mxGeometry width="50" height="50" relative="1" as="geometry">
            <mxPoint x="350" y="115" as="sourcePoint" />
            <mxPoint x="365" y="329" as="targetPoint" />
            <Array as="points">
              <mxPoint x="350" y="320" />
            </Array>
          </mxGeometry>
        </mxCell>
        <mxCell id="n15t3PWzXRXZYpA_dQfd-35" value="" style="endArrow=classic;html=1;rounded=0;edgeStyle=orthogonalEdgeStyle;startArrow=none;startFill=0;startSize=3;endFill=1;fontFamily=NewsGotT;" parent="1" target="n15t3PWzXRXZYpA_dQfd-20" edge="1">
          <mxGeometry width="50" height="50" relative="1" as="geometry">
            <mxPoint x="615" y="330" as="sourcePoint" />
            <mxPoint x="660" y="277.5" as="targetPoint" />
            <Array as="points">
              <mxPoint x="615" y="279" />
            </Array>
          </mxGeometry>
        </mxCell>
        <mxCell id="n15t3PWzXRXZYpA_dQfd-36" value="" style="endArrow=classic;html=1;rounded=0;edgeStyle=orthogonalEdgeStyle;startArrow=none;startFill=0;startSize=3;endFill=1;fontFamily=NewsGotT;" parent="1" target="n15t3PWzXRXZYpA_dQfd-41" edge="1">
          <mxGeometry width="50" height="50" relative="1" as="geometry">
            <mxPoint x="615" y="330" as="sourcePoint" />
            <mxPoint x="660" y="413.98" as="targetPoint" />
            <Array as="points">
              <mxPoint x="615" y="414" />
            </Array>
          </mxGeometry>
        </mxCell>
        <mxCell id="n15t3PWzXRXZYpA_dQfd-46" value="" style="endArrow=none;html=1;rounded=0;edgeStyle=orthogonalEdgeStyle;startArrow=oval;startFill=1;startSize=3;fontFamily=NewsGotT;entryX=0;entryY=0.5;entryDx=0;entryDy=0;entryPerimeter=0;" parent="1" target="n15t3PWzXRXZYpA_dQfd-45" edge="1">
          <mxGeometry width="50" height="50" relative="1" as="geometry">
            <mxPoint x="635" y="240" as="sourcePoint" />
            <mxPoint x="660" y="396" as="targetPoint" />
            <Array as="points">
              <mxPoint x="635" y="395" />
            </Array>
          </mxGeometry>
        </mxCell>
        <mxCell id="n15t3PWzXRXZYpA_dQfd-47" value="mul_done_i" style="edgeStyle=orthogonalEdgeStyle;rounded=0;orthogonalLoop=1;jettySize=auto;html=1;endArrow=none;endFill=0;align=right;startSize=6;endSize=4;fontFamily=NewsGotT;fontSize=12;entryX=0.3333333333333333;entryY=1;entryDx=10;entryDy=0;entryPerimeter=0;" parent="1" target="6dm7ZZ2Ce49l9A71G7zG-44" edge="1">
          <mxGeometry x="-1" y="-5" relative="1" as="geometry">
            <mxPoint x="548" y="285" as="targetPoint" />
            <mxPoint x="100" y="375" as="sourcePoint" />
            <Array as="points">
              <mxPoint x="548" y="375" />
            </Array>
            <mxPoint x="-5" y="-5" as="offset" />
          </mxGeometry>
        </mxCell>
        <mxCell id="n15t3PWzXRXZYpA_dQfd-18" value="&lt;font&gt;MUL&lt;/font&gt;" style="rounded=0;whiteSpace=wrap;html=1;points=[[0,0.25,0,0,0],[0,0.5,0,0,0],[0,0.75,0,0,0],[1,0.3,0,0,0],[1,0.7,0,0,0]];fontFamily=NewsGotT;" parent="1" vertex="1">
          <mxGeometry x="660" y="220" width="70" height="80" as="geometry" />
        </mxCell>
        <mxCell id="n15t3PWzXRXZYpA_dQfd-19" value="A" style="text;html=1;align=center;verticalAlign=middle;resizable=0;points=[];autosize=1;strokeColor=none;fillColor=none;fontSize=11;spacing=-6;fontFamily=NewsGotT;" parent="1" vertex="1">
          <mxGeometry x="660" y="254.28571428571428" width="10" height="10" as="geometry" />
        </mxCell>
        <mxCell id="n15t3PWzXRXZYpA_dQfd-20" value="B" style="text;html=1;align=center;verticalAlign=middle;resizable=0;points=[];autosize=1;strokeColor=none;fillColor=none;fontSize=11;spacing=-6;fontFamily=NewsGotT;" parent="1" vertex="1">
          <mxGeometry x="660" y="273.7142857142857" width="10" height="10" as="geometry" />
        </mxCell>
        <mxCell id="n15t3PWzXRXZYpA_dQfd-21" value="P" style="text;html=1;align=center;verticalAlign=middle;resizable=0;points=[];autosize=1;strokeColor=none;fillColor=none;fontSize=11;spacing=-6;fontFamily=NewsGotT;" parent="1" vertex="1">
          <mxGeometry x="718" y="251.78285714285715" width="10" height="15" as="geometry" />
        </mxCell>
        <mxCell id="n15t3PWzXRXZYpA_dQfd-23" value="" style="triangle;whiteSpace=wrap;html=1;fontFamily=NewsGotT;movable=1;resizable=1;rotatable=1;deletable=1;editable=1;locked=0;connectable=1;points=[[0,0.5,0,0,0]];" parent="1" vertex="1">
          <mxGeometry x="660" y="234.71428571428572" width="7.5" height="11.428571428571427" as="geometry" />
        </mxCell>
        <mxCell id="n15t3PWzXRXZYpA_dQfd-40" value="&lt;font&gt;MUL&lt;/font&gt;" style="rounded=0;whiteSpace=wrap;html=1;points=[[0,0.25,0,0,0],[0,0.5,0,0,0],[0,0.75,0,0,0],[1,0.3,0,0,0],[1,0.7,0,0,0]];fontFamily=NewsGotT;" parent="1" vertex="1">
          <mxGeometry x="660" y="375" width="70" height="80" as="geometry" />
        </mxCell>
        <mxCell id="n15t3PWzXRXZYpA_dQfd-41" value="A" style="text;html=1;align=center;verticalAlign=middle;resizable=0;points=[];autosize=1;strokeColor=none;fillColor=none;fontSize=11;spacing=-6;fontFamily=NewsGotT;" parent="1" vertex="1">
          <mxGeometry x="660" y="409.2857142857143" width="10" height="10" as="geometry" />
        </mxCell>
        <mxCell id="n15t3PWzXRXZYpA_dQfd-42" value="B" style="text;html=1;align=center;verticalAlign=middle;resizable=0;points=[];autosize=1;strokeColor=none;fillColor=none;fontSize=11;spacing=-6;fontFamily=NewsGotT;" parent="1" vertex="1">
          <mxGeometry x="660" y="428.7142857142857" width="10" height="10" as="geometry" />
        </mxCell>
        <mxCell id="n15t3PWzXRXZYpA_dQfd-44" value="P" style="text;html=1;align=center;verticalAlign=middle;resizable=0;points=[];autosize=1;strokeColor=none;fillColor=none;fontSize=11;spacing=-6;fontFamily=NewsGotT;" parent="1" vertex="1">
          <mxGeometry x="718" y="408.0028571428571" width="10" height="15" as="geometry" />
        </mxCell>
        <mxCell id="n15t3PWzXRXZYpA_dQfd-45" value="" style="triangle;whiteSpace=wrap;html=1;fontFamily=NewsGotT;movable=1;resizable=1;rotatable=1;deletable=1;editable=1;locked=0;connectable=1;points=[[0,0.5,0,0,0]];" parent="1" vertex="1">
          <mxGeometry x="660" y="389.7142857142857" width="7.5" height="11.428571428571427" as="geometry" />
        </mxCell>
        <mxCell id="dJptLKKedbPh9i24rRya-1" value="ALTERAR" style="shape=callout;whiteSpace=wrap;html=1;perimeter=calloutPerimeter;" vertex="1" parent="1">
          <mxGeometry x="75" y="90" width="760" height="485" as="geometry" />
        </mxCell>
      </root>
    </mxGraphModel>
  </diagram>
</mxfile>
